<svg xmlns="http://www.w3.org/2000/svg" viewBox="0 0 370.46 370"><defs><style>.cls-1{fill:#bcbbbb;}.cls-2{fill:#565656;}.cls-3{fill:#212121;}.cls-4{fill:#424242;}.cls-5{fill:#777;}</style></defs><g id="Lager_1" data-name="Lager 1"><circle class="cls-1" cx="185.46" cy="185" r="185"/></g><g id="Lager_5" data-name="Lager 5"><path class="cls-2" d="M469.41,413h-3.82c-39,0-9.59,7.29-9.59,20L397.05,627.22a184.43,184.43,0,0,0,140.7-.33L476,432C476,419.29,508.4,413,469.41,413Z" transform="translate(-282.54 -271)"/></g><g id="Lager_4" data-name="Lager 4"><path class="cls-3" d="M652.5,456c-.82-101.47-83.32-183.49-185-183.49s-184.17,82-185,183.49Z" transform="translate(-282.54 -271)"/></g><g id="Lager_3" data-name="Lager 3"><path class="cls-4" d="M387.62,456C412,444,439.23,434,468,434s56,10,80.19,22H652.5c-.82-101.47-83.32-183.49-185-183.49s-184.17,82-185,183.49Z" transform="translate(-282.54 -271)"/></g><g id="Lager_2" data-name="Lager 2"><path class="cls-2" d="M340.82,456c33.25-30.58,78-71,127.18-71s93.71,40.42,126.72,71H652.5c-.82-101.47-83.32-183.49-185-183.49s-184.17,82-185,183.49Z" transform="translate(-282.54 -271)"/></g><g id="Lager_6" data-name="Lager 6"><path class="cls-5" d="M318.66,456c33.7-44.36,87.82-126.49,148.86-126.49S582.67,411.64,616.37,456H652.5c-.82-101.47-83.32-183.49-185-183.49s-184.17,82-185,183.49Z" transform="translate(-282.54 -271)"/></g></svg>